<?xml version="1.0" encoding="UTF-8" standalone="no"?>
<svg width="61px" height="18px" viewBox="0 0 61 18" version="1.1" xmlns="http://www.w3.org/2000/svg" xmlns:xlink="http://www.w3.org/1999/xlink">
    <title>TealUI</title>
    <g stroke="none" stroke-width="1" fill="none" fill-rule="evenodd">
        <g transform="translate(-48.000000, -7.000000)" fill="#FFFFFF">
            <path d="M60.286002,9.20538244 C60.286002,9.36685633 60.2775407,9.50708156 60.2606177,9.62606232 C60.2436948,9.74504309 60.2161954,9.8406512 60.1781187,9.91288952 C60.1400421,9.98512784 60.0935047,10.0382435 60.0385051,10.072238 C59.9835055,10.1062325 59.9221607,10.1232295 59.8544689,10.1232295 L55.234526,10.1232295 L55.234526,24.4263456 C55.234526,24.4943346 55.2176033,24.5538241 55.1837574,24.6048159 C55.1499115,24.6558076 55.090682,24.6961755 55.0060673,24.7259207 C54.9214525,24.7556659 54.8093396,24.7811614 54.6697253,24.8024079 C54.5301109,24.8236545 54.3545379,24.8342776 54.143001,24.8342776 C53.9399256,24.8342776 53.7664679,24.8236545 53.6226228,24.8024079 C53.4787777,24.7811614 53.3645495,24.7556659 53.2799348,24.7259207 C53.19532,24.6961755 53.1360905,24.6558076 53.1022446,24.6048159 C53.0683987,24.5538241 53.051476,24.4943346 53.051476,24.4263456 L53.051476,10.1232295 L48.4315331,10.1232295 C48.3638413,10.1232295 48.3024965,10.1062325 48.2474969,10.072238 C48.1924973,10.0382435 48.1480753,9.98512784 48.1142294,9.91288952 C48.0803835,9.8406512 48.0528841,9.74504309 48.0317304,9.62606232 C48.0105767,9.50708156 48,9.36685633 48,9.20538244 C48,9.04390854 48.0105767,8.90155869 48.0317304,8.77832861 C48.0528841,8.65509853 48.0803835,8.55524118 48.1142294,8.47875354 C48.1480753,8.40226591 48.1924973,8.34702567 48.2474969,8.31303116 C48.3024965,8.27903666 48.3638413,8.26203966 48.4315331,8.26203966 L59.8544689,8.26203966 C59.9221607,8.26203966 59.9835055,8.27903666 60.0385051,8.31303116 C60.0935047,8.34702567 60.1400421,8.40226591 60.1781187,8.47875354 C60.2161954,8.55524118 60.2436948,8.65509853 60.2606177,8.77832861 C60.2775407,8.90155869 60.286002,9.04390854 60.286002,9.20538244 Z M69.5439615,18.2053824 C69.5439615,18.5368289 69.4614633,18.7726622 69.2964645,18.9128895 C69.1314657,19.0531168 68.9432007,19.1232295 68.7316638,19.1232295 L61.2432948,19.1232295 C61.2432948,19.7606264 61.3067549,20.3342751 61.4336771,20.8441926 C61.5605992,21.3541102 61.7721329,21.7917829 62.0682846,22.1572238 C62.3644363,22.5226647 62.7494277,22.8031152 63.2232703,22.9985836 C63.697113,23.194052 64.2767154,23.2917847 64.962095,23.2917847 C65.5036295,23.2917847 65.9859264,23.2471676 66.4090002,23.157932 C66.832074,23.0686964 67.1980274,22.9688391 67.5068712,22.8583569 C67.8157151,22.7478748 68.0695556,22.6480174 68.2684003,22.5587819 C68.467245,22.4695463 68.6174339,22.4249292 68.7189717,22.4249292 C68.778202,22.4249292 68.8310854,22.4398016 68.8776235,22.4695467 C68.9241617,22.4992919 68.9601224,22.5439091 68.9855068,22.6033994 C69.0108912,22.6628898 69.0299293,22.7457502 69.0426215,22.851983 C69.0553137,22.9582158 69.0616597,23.0878179 69.0616597,23.2407932 C69.0616597,23.3512753 69.0574291,23.4468834 69.0489676,23.5276204 C69.0405061,23.6083573 69.0299294,23.6805946 69.0172372,23.7443343 C69.004545,23.808074 68.9833916,23.8654388 68.9537764,23.9164306 C68.9241613,23.9674224 68.8860852,24.0162887 68.8395471,24.0630312 C68.793009,24.1097736 68.655512,24.1862601 68.4270522,24.2924929 C68.1985923,24.3987257 67.9024451,24.5028324 67.5386016,24.6048159 C67.1747581,24.7067994 66.753806,24.7981582 66.2757326,24.8788952 C65.7976592,24.9596321 65.2878629,25 64.7463284,25 C63.8071046,25 62.9842384,24.8682733 62.2777051,24.6048159 C61.5711718,24.3413585 60.976762,23.9504275 60.4944579,23.4320113 C60.0121538,22.9135951 59.6483157,22.26346 59.4029329,21.4815864 C59.1575501,20.6997128 59.0348606,19.7903735 59.0348606,18.7535411 C59.0348606,17.7677005 59.1617808,16.881732 59.4156251,16.0956091 C59.6694694,15.3094862 60.0354227,14.642354 60.5134961,14.0941926 C60.9915695,13.5460313 61.5690566,13.1253556 62.2459747,12.832153 C62.9228928,12.5389504 63.6801836,12.3923513 64.5178697,12.3923513 C65.4147862,12.3923513 66.178423,12.5368258 66.8088029,12.825779 C67.4391829,13.1147323 67.9574406,13.5035386 68.3635914,13.9922096 C68.7697423,14.4808806 69.0680048,15.0545293 69.2583881,15.7131728 C69.4487713,16.3718163 69.5439615,17.0750671 69.5439615,17.8229462 L69.5439615,18.2053824 Z M67.4370644,17.5807365 C67.4624488,16.4759152 67.2191851,15.6090683 66.7072657,14.98017 C66.1953464,14.3512716 65.4359403,14.0368272 64.4290247,14.0368272 C63.9128746,14.0368272 63.4601924,14.1345599 63.0709645,14.3300283 C62.6817366,14.5254967 62.3559747,14.7847009 62.0936689,15.1076487 C61.8313631,15.4305965 61.6282908,15.8066551 61.4844457,16.2358357 C61.3406006,16.6650163 61.2602178,17.1133121 61.2432948,17.5807365 L67.4370644,17.5807365 Z M81.0230473,24.4518414 C81.0230473,24.5538249 80.9892019,24.6303114 80.9215101,24.6813031 C80.8538183,24.7322949 80.7607434,24.7705381 80.6422828,24.796034 C80.5238221,24.8215299 80.3503644,24.8342776 80.1219046,24.8342776 C79.9019062,24.8342776 79.7263332,24.8215299 79.5951803,24.796034 C79.4640274,24.7705381 79.3688373,24.7322949 79.3096069,24.6813031 C79.2503766,24.6303114 79.2207619,24.5538249 79.2207619,24.4518414 L79.2207619,23.3045326 C78.7215348,23.839946 78.1652011,24.2563725 77.551744,24.5538244 C76.938287,24.8512763 76.2888784,25 75.6034989,25 C75.0027341,25 74.4590924,24.9213889 73.9725575,24.7641643 C73.4860226,24.6069397 73.0714165,24.3796049 72.7287267,24.082153 C72.3860369,23.7847011 72.1195044,23.4192656 71.9291212,22.9858357 C71.738738,22.5524058 71.6435478,22.0594928 71.6435478,21.5070822 C71.6435478,20.8611866 71.7746987,20.3002857 72.0370045,19.8243626 C72.2993102,19.3484395 72.6758403,18.9532594 73.1666059,18.6388102 C73.6573715,18.324361 74.2581273,18.0885277 74.9688913,17.9313031 C75.6796553,17.7740785 76.4792528,17.6954674 77.3677078,17.6954674 L78.9415346,17.6954674 L78.9415346,16.8031161 C78.9415346,16.3611876 78.8949971,15.9702567 78.8019209,15.6303116 C78.7088447,15.2903666 78.5586557,15.0077915 78.3513495,14.7825779 C78.1440434,14.5573643 77.8753955,14.3873943 77.545398,14.2726629 C77.2154004,14.1579314 76.8092556,14.1005666 76.3269515,14.1005666 C75.8108014,14.1005666 75.3475426,14.1621807 74.937161,14.2854108 C74.5267794,14.4086408 74.167172,14.5446168 73.8583281,14.6933428 C73.5494843,14.8420687 73.2914131,14.9780447 73.0841069,15.1012748 C72.8768008,15.2245049 72.7223811,15.286119 72.6208434,15.286119 C72.5531516,15.286119 72.4939222,15.269122 72.4431533,15.2351275 C72.3923845,15.201133 72.3479624,15.150142 72.3098857,15.082153 C72.2718091,15.014164 72.2443097,14.9270544 72.2273867,14.8208215 C72.2104638,14.7145887 72.2020024,14.5977343 72.2020024,14.470255 C72.2020024,14.2577893 72.2168098,14.089944 72.246425,13.9667139 C72.2760401,13.8434838 72.3479616,13.7266294 72.4621915,13.6161473 C72.5764215,13.5056652 72.7731478,13.3760631 73.0523766,13.2273371 C73.3316053,13.0786112 73.6531365,12.9426352 74.01698,12.8194051 C74.3808235,12.696175 74.7785069,12.594193 75.2100422,12.5134561 C75.6415775,12.4327191 76.077337,12.3923513 76.5173337,12.3923513 C77.3380969,12.3923513 78.0361582,12.4858348 78.6115386,12.6728045 C79.186919,12.8597743 79.6522932,13.1338509 80.0076752,13.4950425 C80.3630572,13.8562341 80.6211284,14.3045299 80.7818964,14.8399433 C80.9426645,15.3753568 81.0230473,15.9999964 81.0230473,16.713881 L81.0230473,24.4518414 Z M78.9415346,19.2124646 L77.1519413,19.2124646 C76.5765609,19.2124646 76.0773413,19.261331 75.6542675,19.3590652 C75.2311937,19.4567994 74.8800477,19.6012738 74.600819,19.7924929 C74.3215902,19.983712 74.1164025,20.2131715 73.9852496,20.4808782 C73.8540968,20.7485849 73.7885213,21.0566555 73.7885213,21.4050992 C73.7885213,22.000003 73.9767863,22.4737943 74.353322,22.8264873 C74.7298577,23.1791802 75.2565767,23.3555241 75.9334948,23.3555241 C76.4834908,23.3555241 76.993287,23.2152989 77.462899,22.9348442 C77.9325109,22.6543895 78.4253845,22.2252154 78.9415346,21.6473088 L78.9415346,19.2124646 Z M86.6510516,24.4390935 C86.6510516,24.5070825 86.6341289,24.5644474 86.600283,24.6111898 C86.5664371,24.6579322 86.5114383,24.6983001 86.435285,24.7322946 C86.3591317,24.7662891 86.2533649,24.7917846 86.1179812,24.8087819 C85.9825976,24.8257791 85.80914,24.8342776 85.5976031,24.8342776 C85.3945276,24.8342776 85.2253006,24.8257791 85.089917,24.8087819 C84.9545334,24.7917846 84.8466512,24.7662891 84.7662672,24.7322946 C84.6858832,24.6983001 84.6308844,24.6579322 84.6012692,24.6111898 C84.571654,24.5644474 84.5568467,24.5070825 84.5568467,24.4390935 L84.5568467,7.40793201 C84.5568467,7.339943 84.571654,7.28045351 84.6012692,7.22946176 C84.6308844,7.17847 84.6858832,7.13597751 84.7662672,7.101983 C84.8466512,7.0679885 84.9545334,7.042493 85.089917,7.02549575 C85.2253006,7.0084985 85.3945276,7 85.5976031,7 C85.80914,7 85.9825976,7.0084985 86.1179812,7.02549575 C86.2533649,7.042493 86.3591317,7.0679885 86.435285,7.101983 C86.5114383,7.13597751 86.5664371,7.17847 86.600283,7.22946176 C86.6341289,7.28045351 86.6510516,7.339943 86.6510516,7.40793201 L86.6510516,24.4390935 Z M102.800849,18.6643059 C102.800849,19.6671438 102.654891,20.5616108 102.36297,21.3477337 C102.071049,22.1338566 101.654327,22.7988641 101.112793,23.3427762 C100.571258,23.8866883 99.9112731,24.2988655 99.1328173,24.5793201 C98.3543615,24.8597748 97.4701505,25 96.4801578,25 C95.5747798,25 94.7497983,24.8682733 94.0051884,24.6048159 C93.2605785,24.3413585 92.6217466,23.9525521 92.0886736,23.4383853 C91.5556006,22.9242184 91.1452252,22.2804571 90.857535,21.5070822 C90.5698448,20.7337072 90.4260018,19.8413648 90.4260018,18.8300283 L90.4260018,8.59348442 C90.4260018,8.52549541 90.4429245,8.46600592 90.4767704,8.41501416 C90.5106163,8.36402241 90.5698458,8.32365454 90.6544606,8.29390935 C90.7390753,8.26416416 90.8490729,8.23866866 90.9844565,8.2174221 C91.1198401,8.19617553 91.2975284,8.18555241 91.5175268,8.18555241 C91.7206022,8.18555241 91.8940599,8.19617553 92.037905,8.2174221 C92.1817501,8.23866866 92.293863,8.26416416 92.374247,8.29390935 C92.454631,8.32365454 92.5117451,8.36402241 92.545591,8.41501416 C92.5794369,8.46600592 92.5963596,8.52549541 92.5963596,8.59348442 L92.5963596,18.5623229 C92.5963596,19.3271993 92.6894345,19.9943314 92.875587,20.5637394 C93.0617394,21.1331473 93.3303873,21.6069386 93.6815385,21.9851275 C94.0326898,22.3633163 94.4557573,22.648016 94.9507536,22.8392351 C95.44575,23.0304542 96.0020837,23.1260623 96.6197715,23.1260623 C97.2543822,23.1260623 97.8191772,23.0325788 98.3141736,22.8456091 C98.80917,22.6586393 99.2280067,22.3781888 99.5706965,22.0042493 C99.9133863,21.6303097 100.175688,21.1671416 100.35761,20.6147309 C100.539532,20.0623202 100.630491,19.4164343 100.630491,18.6770538 L100.630491,8.59348442 C100.630491,8.52549541 100.647414,8.46600592 100.68126,8.41501416 C100.715106,8.36402241 100.774335,8.32365454 100.85895,8.29390935 C100.943565,8.26416416 101.055677,8.23866866 101.195292,8.2174221 C101.334906,8.19617553 101.510479,8.18555241 101.722016,8.18555241 C101.925092,8.18555241 102.096434,8.19617553 102.236048,8.2174221 C102.375663,8.23866866 102.48566,8.26416416 102.566044,8.29390935 C102.646428,8.32365454 102.705658,8.36402241 102.743734,8.41501416 C102.781811,8.46600592 102.800849,8.52549541 102.800849,8.59348442 L102.800849,18.6643059 Z M109,24.4263456 C109,24.4943346 108.983077,24.5538241 108.949231,24.6048159 C108.915385,24.6558076 108.856156,24.6961755 108.771541,24.7259207 C108.686927,24.7556659 108.574814,24.7811614 108.435199,24.8024079 C108.295585,24.8236545 108.120012,24.8342776 107.908475,24.8342776 C107.7054,24.8342776 107.531942,24.8236545 107.388097,24.8024079 C107.244252,24.7811614 107.130024,24.7556659 107.045409,24.7259207 C106.960794,24.6961755 106.901565,24.6558076 106.867719,24.6048159 C106.833873,24.5538241 106.81695,24.4943346 106.81695,24.4263456 L106.81695,8.59348442 C106.81695,8.52549541 106.835988,8.46600592 106.874065,8.41501416 C106.912141,8.36402241 106.975601,8.32365454 107.064447,8.29390935 C107.153292,8.26416416 107.267521,8.23866866 107.407135,8.2174221 C107.546749,8.19617553 107.713861,8.18555241 107.908475,8.18555241 C108.120012,8.18555241 108.295585,8.19617553 108.435199,8.2174221 C108.574814,8.23866866 108.686927,8.26416416 108.771541,8.29390935 C108.856156,8.32365454 108.915385,8.36402241 108.949231,8.41501416 C108.983077,8.46600592 109,8.52549541 109,8.59348442 L109,24.4263456 Z" id="TealUI"></path>
        </g>
    </g>
</svg>