<?xml version="1.0" encoding="UTF-8" standalone="no"?>
<svg width="640px" height="640px" viewBox="0 0 640 640" version="1.1" xmlns="http://www.w3.org/2000/svg" xmlns:xlink="http://www.w3.org/1999/xlink" xmlns:sketch="http://www.bohemiancoding.com/sketch/ns">
    <!-- Generator: Sketch 3.3 (11970) - http://www.bohemiancoding.com/sketch -->
    <title>Slice 1</title>
    <desc>Created with Sketch.</desc>
    <defs></defs>
    <g id="Page-1" stroke="none" stroke-width="1" fill="none" fill-rule="evenodd" sketch:type="MSPage">
        <path d="M66.1852752,189.139007 C66.1852752,190.990715 70.6979621,192.52383 78.4382096,194.302856 C86.1784572,196.081882 97.2588794,195.850905 123.82186,200.605632 C146.494716,204.664034 143.819327,209.003846 160.122398,212.894195 C162.919619,213.561687 171.385877,215.656938 175.342422,216.537025 C187.540741,219.250398 197.800548,217.233125 205.337791,218.723766 C214.493831,220.534556 221.345981,224.080325 230.677563,226.407222 C247.690894,230.649617 277.649787,238.62403 282.176032,247.348331 C286.702277,256.072632 283.79165,253.728316 275.800666,269.696483 C267.809682,285.664651 238.308885,323.912809 231.395591,338.045963 C224.482296,352.179116 207.017182,388.385679 200.868945,400.922494 C194.720709,413.459309 193.068412,412.524581 186.854507,428.558139 C180.640601,444.591698 182.153109,444.432236 180.357398,451.478214 C178.561687,458.524191 171.690845,475.1348 177.385216,474.892451 C183.079587,474.650102 195.999801,458.100205 198.537414,459.806893 C198.939471,460.077298 187.162096,475.323703 186.854507,476.797611 C186.489008,478.549008 184.169646,486.543238 194.048983,481.314553 C203.92832,476.085868 208.156632,468.438909 211.778908,468.165276 C215.401185,467.891642 205.733101,480.933344 211.809992,479.972854 C217.886882,479.012363 226.841685,465.674987 231.395591,465.064736 C235.949496,464.454484 226.061393,478.702744 235.504805,476.797602 C244.948218,474.892459 247.158485,469.860569 262.197669,462.764377 C277.236854,455.668186 311.02341,431.298439 331.027991,409.001392 C351.032573,386.704345 361.798008,354.939669 381.083961,338.045963 C400.369913,321.152256 399.488654,322.153415 415.646583,316.593158 C431.804511,311.032901 435.992286,311.457575 473.574317,320.578486 C511.156348,329.699396 534.958474,329.156086 547.940864,331.15633 C560.923254,333.156573 570.149848,341.378833 573.851356,333.717975 C576.851166,327.50939 540.274245,295.067768 529.912063,286.993274 C519.54988,278.918781 521.675767,273.209985 518.191505,269.696483 C499.811744,251.162479 405.164616,199.437501 388.981801,190.990715 C372.798985,182.543929 364.750535,180.607422 352.434034,177.499008 C340.117533,174.390595 324.960505,174.110765 308.363212,173.881191 C291.765919,173.651617 266.63259,181.614383 242.00759,181.614383 C217.38259,181.614383 191.842247,159.443833 167.449317,157.226923 C143.056387,155.010014 136.591222,166.089214 130.368588,170.127444 C125.673642,173.174268 120.816581,177.316589 111.379079,179.805144 C108.308211,180.614895 104.752373,181.249547 100.559344,181.614383 C83.4801497,183.100448 73.1669844,181.270177 68.9976832,181.614383 C64.828382,181.95859 66.1852752,187.2873 66.1852752,189.139007 Z" id="Path-1" fill="#000000" sketch:type="MSShapeGroup"></path>
    </g>
</svg>